<?xml version="1.0" encoding="utf-8"?>
<!-- Generator: Adobe Illustrator 19.0.0, SVG Export Plug-In . SVG Version: 6.00 Build 0)  -->
<svg version="1.1" id="Layer_1" xmlns="http://www.w3.org/2000/svg" xmlns:xlink="http://www.w3.org/1999/xlink" x="0px" y="0px"
	 viewBox="0 0 430 560" style="enable-background:new 0 0 430 560;" xml:space="preserve">
<style type="text/css">
	.st0{fill:#EE6055;}
	.st1{fill:#000000;}
</style>
<g id="XMLID_231_">
	<polygon id="XMLID_245_" class="st0" points="325,303 325,298 320.4,298 316,298 316,293 312,293 312,288 308,288 308,284
		308,279.2 308,274.2 308,270 303.8,270 300,270 300,274 295,274 295,279 292,279 292,284 287.4,284 283.1,284 279,284 275,284
		271,284 271,279.2 271,274 267,274 267,269.4 267,265 262.5,265 258,265 258,270 254,270 254,274.2 254,279.2 254,284 254,288.7
		254,293.5 254,298.3 254,303 254,307.8 254,312.6 254,318 251,318 251,322.1 251,326.9 251,331.7 251,336.4 251,341 254,341
		254,346 258,346 258,350 262.5,350 266.8,350 270.9,350 275,350 275,346 279,346 283,346 283,341 288,341 288,337 291.5,337
		295,337 295,332 300,332 300,327 303.8,327 308,327 308,323 312.2,323 316,323 316,318 320.4,318 325,318 325,313 329,313
		329,307.8 329,303 	"/>
	<polygon id="XMLID_244_" class="st0" points="295,274 295,269.4 295,265 291.5,265 287.4,265 283.1,265 279,265 275,265 275,269.4
		275,274.2 275,279 279,279 283.1,279 287.4,279 292,279 292,274 	"/>
	<path id="XMLID_241_" class="st0" d="M304,241v-15h-4v-9h-5v-5h-3v-9h-4v-5h-5v-10h-4v-5h-4v-5h-4v-4h-4v-10h-5v-9h-4v-34h-4v-15
		h-3v-9h-5v-5h-4v-5h-8v-4h-41v4h-9v10h-5v9h-3v30h3v14h5v-34h12v5h4v15h5v4h-5v5h-4v-9h-3v-5h3v-5h-8v14h5v5h-5v5h-4v5h4v5h8v4h13
		v-4h12v-5h4v-5h9v-5h-4v-14h-5v-5h-4v5h-4v9h-4v5h-4v-5h4v-19h4v-5h17v5h3v24h5v24h4v14h5v10h3v10h4v9h4v10h5v43h4v-5h8v-14h4v-15
		h5v15h-5v14h25v-19H304z M283,226h-4v-9h-4v-5h4v5h4V226z"/>
	<polygon id="XMLID_240_" class="st0" points="251,307.8 251,303 246.1,303 242,303 242,308 237,308 237,313 233.6,313 229.5,313
		225,313 225,318 221.1,318 217,318 213,318 209,318 209,323 204.8,323 200.5,323 196,323 196,326.9 196,331.7 196,337 200.5,337
		204.8,337 209,337 209,332 213,332 217,332 221.1,332 225.4,332 229.5,332 233.6,332 237.7,332 242,332 242,337 246,337 246,331.7
		246,326.9 246,322.1 246,317.4 246,313 251,313 	"/>
	<polygon id="XMLID_239_" class="st0" points="229.5,155 225,155 225,160 221,160 221,164 217,164 213,164 213,169 208.9,169
		204.8,169 200.5,169 196,169 196,174 200.5,174 204.8,174 208.9,174 213,174 217,174 217,169 221.1,169 225,169 225,164 230,164
		230,160 233.6,160 237,160 237,154.8 237,150 234,150 234,155 	"/>
	<rect id="XMLID_238_" x="193" y="164" class="st0" width="3" height="5"/>
	<path id="XMLID_234_" class="st0" d="M179,188v-10h5v-18h-5v-10h-3v28h-4v5h-4v5h-5v5h-4v5h-4v9h-4v5h-4v10h-5v9h-4v10h-3v10h-5v9
		h8v-4h9v-5h4v9h4v-29h4v-9h4v-5h5v-5h4v-5h12v-9h-8v-10H179z M155,226h-4v15h-4v-15h4v-4h4V226z M159,217h-4v-5h4V217z"/>
	<polygon id="XMLID_233_" class="st0" points="168,284 168,288 172,288 172,293 176,293 176,298 179,298 179,303 183.9,303 188,303
		188,298.3 188,293.5 188,288 184,288 184,284 179,284 179,279 175.7,279 172,279 172,274 168,274 168,270 163,270 163,274.2
		163,279 168,279 	"/>
	<polygon id="XMLID_232_" class="st0" points="135,265 135,270 130,270 130,274 126.2,274 122,274 122,279 117.8,279 114,279
		114,284 109.6,284 105.5,284 101,284 101,288.7 101,293.5 101,298.3 101,303 105,303 105,307.8 105,313 101,313 101,317.4
		101,322.1 101,327 105.5,327 110,327 110,332 113.7,332 117.8,332 122,332 122,337 126.2,337 130,337 130,341 134.4,341 138.5,341
		142,341 142,346 146.9,346 151,346 155,346 155,350 159.1,350 163.2,350 167.5,350 171.6,350 175.7,350 179,350 179,346 184,346
		184,341 188,341 188,336.4 188,331.7 188,326.9 188,322.1 188,318 184,318 184,313 179,313 179,308 176,308 176,303 172,303
		172,298.3 172,293 168,293 168,288 163,288 163,284 163,279 159,279 159,274 155,274 155,270 151,270 151,265 147,265 147,260
		142.6,260 138,260 138,265 	"/>
</g>
<path id="XMLID_195_" class="st1" d="M381.7,14H48.3C28.2,14,12,30.2,12,50.3v459.5c0,20,16.2,36.3,36.3,36.3h333.5
	c20,0,36.3-16.2,36.3-36.3V50.3C418,30.2,401.8,14,381.7,14z M66,494H53v-67h13V494z M121,494H80v-67h14v54h27V494z M188,494h-54
	v-67h13v54h28v-54h13V494z M255,440h-41v41h28v-13h-14v-14h27v40h-54v-67h54V440z M308,468h-39v-14h39V468z M376,481h-14v13h-40v-67
	h40v13h14V481z M381,360.7c0,12.3-10,22.3-22.3,22.3H70.3C58,383,48,373,48,360.7V72.3C48,60,58,50,70.3,50h288.4
	C371,50,381,60,381,72.3V360.7z M336,481h25v-41h-25V481z"/>
</svg>
